<?xml version="1.0" encoding="UTF-8"?>
<!DOCTYPE svg PUBLIC "-//W3C//DTD SVG 1.1//EN" "http://www.w3.org/Graphics/SVG/1.1/DTD/svg11.dtd">
<!-- Creator: CorelDRAW -->
<svg xmlns="http://www.w3.org/2000/svg" xml:space="preserve" width="95.1653mm" height="88.1128mm" version="1.1" style="shape-rendering:geometricPrecision; text-rendering:geometricPrecision; image-rendering:optimizeQuality; fill-rule:evenodd; clip-rule:evenodd"
viewBox="0 0 1264.63 1170.91"
 xmlns:xlink="http://www.w3.org/1999/xlink"
 xmlns:xodm="http://www.corel.com/coreldraw/odm/2003">
 <defs>
  <style type="text/css">
   <![CDATA[
    .fil0 {fill:white}
   ]]>
  </style>
 </defs>
 <g id="Camada_x0020_1">
  <metadata id="CorelCorpID_0Corel-Layer"/>
  <g id="_1457595065408">
   <path class="fil0" d="M711.07 1063.23c6.51,-1.74 7.45,-8.6 10.48,-14.27l13.16 -23.97c13.09,-25.14 35.07,-68.41 48.32,-91.2l16.94 -32.57c5.44,-10.5 1.99,-11.02 -9.75,-34.15l-8.64 -16.11c-47.32,-94.68 -98.26,-189.76 -145.51,-284.28 -2.94,-5.89 -5.48,-10.94 -8.24,-16.51 -2.85,-5.75 -6.03,-10.91 -9.01,-16.87 -11.18,-22.38 -22.57,-44 -33.75,-66.38 -24.54,-49.11 -52.87,-101.08 -76.88,-149.27l-102.77 -199.88c-3.1,-6.21 -5.51,-11.06 -8.61,-17.26l-34.5 -66.76c-5.58,-11.17 -11.06,-22.75 -16.88,-33.75l-181.14 0c1.49,6.38 12.45,26.07 16.11,33.39l51 99.76c1.8,3.56 2.72,4.51 4.52,7.85 1.68,3.13 2.52,5.06 4.12,8.26 2.97,5.94 5.28,10.56 8.25,16.5l119.64 233.65c5.53,11.05 11.29,21.46 16.88,32.63l127.89 250.15c1.6,3.2 2.44,5.13 4.12,8.26l98.64 190.52c21.02,42.28 49.35,90.46 69.77,131.63 3.51,7.08 25.57,47 25.87,50.64z"/>
   <path class="fil0" d="M-0 0c2.48,10.65 37.77,76.64 46.5,94.13l38.25 74.26c3.42,6.85 6.53,11.9 9.75,18.38l19.13 37.12c36.63,73.86 77.54,149.47 114.38,223.16l18.77 37.49c37.54,74.08 77.25,148.92 114.37,223.16 3.16,6.32 6.08,12.11 9.37,18.75l28.5 55.88c3.32,6.71 6.31,11.47 9.76,18.37l19.13 37.13c3.33,6.71 6.49,11.85 9.75,18.37l38.61 73.9c9.28,16.58 29.2,57.95 38.8,73.71l44.05 81.97c1.87,3.23 2.95,6.11 5.02,9.61 3.69,6.22 6.8,11.57 10.56,17.57l16.87 24.76c12.67,18.6 35.4,47.08 58.47,25.39 15.8,-14.85 38.07,-53.55 50.91,-75.14 2.54,-4.27 2.93,-5.53 0.45,-10.51l-87.48 -165.73c-27.15,-54.83 -58.89,-111.75 -86.25,-166.91 -3.1,-6.25 -6.36,-11.57 -9.76,-18.37l-57.76 -111.01c-1.64,-3.28 -2.97,-6.23 -4.87,-9.76l-100.53 -195.38c-6.39,-12.79 -11.99,-25.01 -18.73,-37.52l-85.89 -167.26c-27.45,-54.91 -58.28,-112.02 -85.88,-167.27 -6.32,-12.65 -12.53,-25.79 -19.13,-38.25l-145.14 0z"/>
   <path class="fil0" d="M814.58 875.34l13.13 -27.38c19.71,-39.54 44.29,-82.83 63.76,-121.89 2.51,-5.04 4.43,-9.39 7.14,-14.24 10.2,-18.23 17.98,-37 28.13,-55.13 16.18,-28.9 40.11,-77.02 56.63,-108.76l105.38 -204.03c2.7,-5.01 4.64,-9.53 7.11,-14.27l70.54 -135.36c13.43,-26.87 96.07,-182.71 98.25,-192.03l-146.26 0c-4.68,8.84 -8.46,18.05 -13.13,27.38l-212.27 409.92c-4.81,9.63 -9.09,17.06 -13.88,26.63 -2.48,4.95 -4.29,8.54 -6.75,13.51 -2.7,5.46 -4.81,8.41 -7.51,13.87 -2.46,4.96 -4.27,8.55 -6.75,13.51l-112.89 217.89c-7.17,14.15 -5.01,10.15 4.14,27.74l56.62 109.89c5.77,11.47 1.69,9.09 8.62,12.76z"/>
   <path class="fil0" d="M732.45 715.57l91.51 -178.52c4.07,-8.14 7.6,-14.05 11.63,-22.13l28.9 -55.49c2.13,-4.2 3.51,-7.07 5.61,-11.27l46.13 -88.88c7.74,-15.49 14.97,-29.1 22.86,-44.65l46.15 -88.87c3.97,-7.97 7.74,-14.36 11.63,-22.13l34.23 -67.03c4.48,-7.49 7.97,-14.33 11.89,-21.87l57.4 -112.5 -182.27 0c-1.78,3.71 -2.84,6.85 -4.87,10.88 -2.11,4.18 -3.53,7.05 -5.63,11.25 -3.97,7.95 -7.28,14.56 -11.25,22.5 -7.72,15.45 -14.78,29.56 -22.5,45 -15.1,30.21 -29.84,58.56 -45,88.88 -30.07,60.14 -59.72,119.45 -89.63,179.27 -7.45,14.91 -15.07,29.03 -22.5,43.88 -7.5,15 -15,30 -22.5,45 -15,30 -29.92,60.05 -45,90.01 -6.85,13.6 -4.4,9.4 0.97,22.66 2.07,5.11 3.33,7.01 5.73,11.14 7.34,12.63 19.86,40.58 28.83,55.55 4.21,7.04 7.61,14.89 11.35,22.4 3.97,7.97 7.74,14.36 11.63,22.13l19.96 38.55c1.84,2.76 1.31,3.28 4.79,4.21z"/>
  </g>
 </g>
</svg>
