<?xml version="1.0" encoding="UTF-8"?>
<!DOCTYPE svg PUBLIC "-//W3C//DTD SVG 1.1//EN" "http://www.w3.org/Graphics/SVG/1.1/DTD/svg11.dtd">
<!-- Creator: CorelDRAW -->
<svg xmlns="http://www.w3.org/2000/svg" xml:space="preserve" width="95.25mm" height="88.138mm" version="1.1" style="shape-rendering:geometricPrecision; text-rendering:geometricPrecision; image-rendering:optimizeQuality; fill-rule:evenodd; clip-rule:evenodd"
viewBox="0 0 1835.05 1698.03"
 xmlns:xlink="http://www.w3.org/1999/xlink"
 xmlns:xodm="http://www.corel.com/coreldraw/odm/2003">
 <defs>
  <style type="text/css">
   <![CDATA[
    .fil0 {fill:black}
   ]]>
  </style>
    <clipPath id="id0">
     <rect width="1835.05" height="1698.03"/>
    </clipPath>
 </defs>
 <g id="Camada_x0020_1">
  <metadata id="CorelCorpID_0Corel-Layer"/>
  <g id="_1457775073904">
   <g style="clip-path:url(#id0)">
    <image id="logoPreta.png" x="-0" y="0" width="1835.05" height="1698.03" xlink:href="vl-store-logo-black_Images\vl-store-logo-black_ImgID1.png"/>
   </g>
   <g>
    <path class="fil0" d="M1030.89 1541.44c9.44,-2.52 10.81,-12.47 15.2,-20.69l19.07 -34.75c18.98,-36.45 50.85,-99.18 70.05,-132.22l24.56 -47.23c7.89,-15.23 2.89,-15.98 -14.13,-49.51l-12.53 -23.36c-68.61,-137.26 -142.45,-275.11 -210.96,-412.14 -4.27,-8.54 -7.94,-15.85 -11.95,-23.94 -4.13,-8.34 -8.75,-15.82 -13.06,-24.46 -16.21,-32.45 -32.72,-63.79 -48.93,-96.24 -35.57,-71.2 -76.65,-146.55 -111.46,-216.4l-149 -289.78c-4.5,-9.01 -7.99,-16.03 -12.49,-25.03l-50.02 -96.78c-8.09,-16.19 -16.03,-32.99 -24.47,-48.93l-262.62 0c2.16,9.26 18.05,37.79 23.36,48.41l73.94 144.63c2.62,5.16 3.94,6.53 6.56,11.39 2.44,4.53 3.66,7.34 5.97,11.97 4.3,8.61 7.66,15.32 11.96,23.92l173.45 338.74c8.01,16.02 16.37,31.11 24.47,47.3l185.41 362.66c2.32,4.63 3.53,7.44 5.97,11.97l143 276.2c30.48,61.29 71.54,131.14 101.14,190.83 5.09,10.26 37.07,68.14 37.5,73.41z"/>
    <path class="fil0" d="M-0 0c3.6,15.44 54.76,111.11 67.42,136.47l55.46 107.66c4.96,9.93 9.47,17.25 14.14,26.64l27.74 53.82c53.11,107.08 112.42,216.7 165.82,323.52l27.21 54.35c54.42,107.4 111.99,215.9 165.81,323.53 4.58,9.16 8.81,17.55 13.59,27.19l41.32 81.02c4.82,9.73 9.14,16.63 14.14,26.63l27.73 53.83c4.83,9.73 9.41,17.17 14.14,26.64l55.98 107.13c13.46,24.04 42.34,84.01 56.25,106.86l63.86 118.83c2.71,4.68 4.28,8.86 7.28,13.93 5.35,9.02 9.85,16.77 15.31,25.47l24.46 35.89c18.37,26.97 51.33,68.26 84.76,36.81 22.9,-21.54 55.19,-77.63 73.8,-108.93 3.68,-6.19 4.25,-8.02 0.65,-15.24l-126.83 -240.27c-39.36,-79.49 -85.38,-162.01 -125.04,-241.97 -4.49,-9.06 -9.22,-16.77 -14.15,-26.63l-83.73 -160.94c-2.38,-4.76 -4.31,-9.04 -7.06,-14.14l-145.74 -283.25c-9.26,-18.54 -17.39,-36.26 -27.16,-54.4l-124.52 -242.49c-39.8,-79.6 -84.49,-162.4 -124.51,-242.5 -9.16,-18.34 -18.17,-37.39 -27.73,-55.46l-210.42 0z"/>
    <path class="fil0" d="M1180.95 1269.04l19.03 -39.69c28.57,-57.33 64.21,-120.09 92.43,-176.71 3.64,-7.31 6.42,-13.61 10.35,-20.64 14.79,-26.42 26.06,-53.64 40.78,-79.93 23.46,-41.9 58.15,-111.67 82.1,-157.68l152.77 -295.8c3.91,-7.26 6.73,-13.82 10.3,-20.69l102.26 -196.24c19.47,-38.96 139.29,-264.88 142.43,-278.4l-212.05 0c-6.78,12.82 -12.27,26.17 -19.03,39.69l-307.74 594.28c-6.98,13.96 -13.18,24.73 -20.12,38.6 -3.59,7.18 -6.22,12.39 -9.78,19.58 -3.92,7.91 -6.97,12.19 -10.89,20.1 -3.56,7.19 -6.2,12.4 -9.78,19.58l-163.66 315.89c-10.4,20.51 -7.27,14.72 6.01,40.22l82.09 159.32c8.37,16.62 2.45,13.18 12.49,18.5z"/>
    <path class="fil0" d="M1061.88 1037.41l132.67 -258.81c5.9,-11.8 11.01,-20.38 16.86,-32.08l41.89 -80.45c3.09,-6.09 5.08,-10.24 8.13,-16.34l66.88 -128.86c11.23,-22.46 21.7,-42.19 33.14,-64.73l66.9 -128.84c5.75,-11.55 11.23,-20.82 16.86,-32.08l49.62 -97.18c6.5,-10.86 11.55,-20.78 17.23,-31.7l83.21 -163.09 -264.25 0c-2.58,5.38 -4.12,9.93 -7.06,15.77 -3.06,6.07 -5.12,10.22 -8.16,16.31 -5.76,11.52 -10.55,21.1 -16.31,32.62 -11.2,22.39 -21.43,42.85 -32.62,65.24 -21.9,43.79 -43.26,84.9 -65.25,128.86 -43.59,87.19 -86.59,173.17 -129.95,259.9 -10.81,21.61 -21.85,42.08 -32.62,63.61 -10.88,21.75 -21.75,43.5 -32.62,65.25 -21.75,43.49 -43.38,87.06 -65.25,130.49 -9.92,19.71 -6.38,13.63 1.4,32.85 3,7.4 4.83,10.16 8.31,16.15 10.65,18.3 28.8,58.84 41.79,80.54 6.11,10.2 11.03,21.59 16.45,32.48 5.76,11.55 11.23,20.82 16.86,32.08l28.93 55.88c2.66,4 1.91,4.75 6.95,6.1z"/>
   </g>
  </g>
 </g>
</svg>
